<svg width="36" height="36" fill="none" xmlns="http://www.w3.org/2000/svg"><path d="M18.023 34.046c8.85 0 16.023-7.174 16.023-16.023C34.046 9.173 26.872 2 18.023 2 9.173 2 2 9.174 2 18.023c0 8.85 7.174 16.023 16.023 16.023Z" stroke="#FFF3E2" stroke-width="2.403" stroke-linecap="round" stroke-linejoin="round"/><path d="m2.801 18.824 8.813 3.205-1.602 5.608 1.602 4.807M26.035 31.643l-.802-4.006-4.005-1.602v-5.608l4.807-1.603 7.21.801M29.24 7.608l-.802 2.404-5.608.8v4.808l4.006-1.603h3.204l3.205 1.603M2.801 15.62l4.006-3.205 4.006-.801 3.204-4.807-1.602-3.205" stroke="#FFF3E2" stroke-width="2.403" stroke-linecap="round" stroke-linejoin="round"/></svg>