<svg width="36" height="36" fill="none" xmlns="http://www.w3.org/2000/svg"><path d="M14.738 16.881 2.975 28.645A3.327 3.327 0 1 0 7.68 33.35l11.763-11.763M26.62 22.193l6.452 6.452a3.327 3.327 0 1 1-4.706 4.705L18.038 23.022M9.219 9.058l-3.53 1.176-3.528-5.881L4.513 2l5.882 3.529-1.176 3.529Zm0 0 4.708 4.708" stroke="#FFF3E2" stroke-width="2.495" stroke-linecap="round" stroke-linejoin="round"/><path d="M14.738 16.881c-1.404-3.581-1.13-8.28 1.764-11.175 2.894-2.893 8.235-3.529 11.175-1.764L22.62 9l-.47 5.176 5.175-.47 5.059-5.059c1.764 2.941 1.13 8.282-1.765 11.175-2.894 2.894-7.593 3.169-11.175 1.765" stroke="#FFF3E2" stroke-width="2.495" stroke-linecap="round" stroke-linejoin="round"/></svg>