<svg width="16" height="20" fill="none" xmlns="http://www.w3.org/2000/svg"><g clip-path="url('#clip0_1_850')" fill-rule="evenodd" clip-rule="evenodd"><path d="M7.562 19.314c.395 0 7.457-7.544 7.457-11.662a7.456 7.456 0 0 0-14.913 0c0 4.118 7.061 11.662 7.456 11.662Zm0-7.933a3.78 3.78 0 1 0 0-7.56 3.78 3.78 0 0 0 0 7.56Z" fill="#1DAEEF"/><path d="M.106 7.652c0 4.118 7.061 11.662 7.456 11.662v-7.933a3.78 3.78 0 0 1 0-7.56V.194A7.456 7.456 0 0 0 .106 7.652Z" fill="#3EC3FF"/></g><defs><clipPath id="clip0_1_850"><path fill="#fff" d="M0 0h16v20H0z"/></clipPath></defs></svg>