<svg width="350" height="25" fill="none" xmlns="http://www.w3.org/2000/svg"><path d="M291.38 2.636c5.494 0 9.948 4.454 9.948 9.949 0 5.494-4.454 9.948-9.948 9.948-5.495 0-9.949-4.454-9.949-9.948h1.99a7.959 7.959 0 1 0 1.855-5.11l2.124 2.125h-5.969V3.63l2.434 2.434a9.93 9.93 0 0 1 7.515-3.428Zm.994 4.974v4.562l3.227 3.226-1.408 1.408-3.808-3.81V7.61h1.989ZM337.144 3.63c-1.095 0-1.99.896-1.99 1.99 0 1.095.895 1.99 1.99 1.99a1.995 1.995 0 0 0 1.989-1.99c0-1.094-.895-1.99-1.989-1.99Zm0 13.929c-1.095 0-1.99.895-1.99 1.99 0 1.094.895 1.99 1.99 1.99a1.995 1.995 0 0 0 1.989-1.99c0-1.095-.895-1.99-1.989-1.99Zm0-6.964c-1.095 0-1.99.895-1.99 1.99 0 1.094.895 1.99 1.99 1.99a1.995 1.995 0 0 0 1.989-1.99c0-1.095-.895-1.99-1.989-1.99ZM20.774 17.559h1.99v1.99H2.867v-1.99h1.99v-6.964a7.959 7.959 0 1 1 15.917 0v6.964Zm-1.99 0v-6.964a5.97 5.97 0 1 0-11.938 0v6.964h11.939Zm-8.953 3.98H15.8v1.99H9.83v-1.99Z" fill="#000"/></svg>