<svg width="25" height="25" fill="none" xmlns="http://www.w3.org/2000/svg"><g clip-path="url('#clip0_61_470')"><path d="M22.795 19.487v2h-2v-2h-16v2h-2v-2a1 1 0 0 1-1-1v-12a1 1 0 0 1 1-1h10.528a5.986 5.986 0 0 1 4.472-2c1.777 0 3.374.773 4.472 2h.528a1 1 0 0 1 1 1v12a1 1 0 0 1-1 1Zm-10.66-12h-8.34v10h18V13.96a6 6 0 0 1-9.66-6.472Zm5.66 6a4 4 0 1 0 0-8 4 4 0 0 0 0 8Zm-12 0h2v2h-2v-2Zm3 0h2v2h-2v-2Z" fill="#000"/></g><defs><clipPath id="clip0_61_470"><path fill="#fff" transform="translate(.795 .487)" d="M0 0h24v24H0z"/></clipPath></defs></svg>