<svg width="25" height="25" fill="none" xmlns="http://www.w3.org/2000/svg"><g clip-path="url('#clip0_61_369')"><path d="m19.295 10.861 4.4 11H21.54l-1.201-3h-4.09l-1.2 3h-2.153l4.399-11h2Zm-8.5-8v2h6v2h-1.968a18.222 18.222 0 0 1-3.62 6.301 14.866 14.866 0 0 0 2.336 1.707l-.751 1.878a17.013 17.013 0 0 1-2.997-2.16 16.675 16.675 0 0 1-6.201 3.547l-.536-1.928a14.7 14.7 0 0 0 5.327-3.042 18.077 18.077 0 0 1-2.823-4.302h2.24a16.032 16.032 0 0 0 1.993 2.877 16.165 16.165 0 0 0 2.91-4.876l-9.91-.001v-2h6v-2h2Zm7.5 10.885-1.247 3.115h2.492l-1.245-3.115Z" fill="#000"/></g><defs><clipPath id="clip0_61_369"><path fill="#fff" transform="translate(.795 .862)" d="M0 0h24v24H0z"/></clipPath></defs></svg>