<svg width="25" height="25" fill="none" xmlns="http://www.w3.org/2000/svg"><g clip-path="url('#clip0_61_375')"><path d="M21.795 3.744a1 1 0 0 1 1 1v14a1 1 0 0 1-1 1H7.25l-4.455 3.5v-18.5a1 1 0 0 1 1-1h18Zm-1 2h-16v13.385l1.763-1.385h14.237v-12ZM11.31 8.156l.447.688c-1.668.903-1.64 2.352-1.64 2.664.156-.02.319-.024.48-.01a1.761 1.761 0 0 1 1.614 1.746 1.75 1.75 0 0 1-1.75 1.75c-.537 0-1.05-.245-1.374-.59-.515-.546-.792-1.16-.792-2.155 0-1.75 1.228-3.318 3.015-4.093Zm5 0 .447.688c-1.668.903-1.64 2.352-1.64 2.664.156-.02.319-.024.48-.01a1.761 1.761 0 0 1 1.614 1.746 1.75 1.75 0 0 1-1.75 1.75c-.537 0-1.05-.245-1.374-.59-.515-.546-.792-1.16-.792-2.155 0-1.75 1.228-3.318 3.015-4.093Z" fill="#000"/></g><defs><clipPath id="clip0_61_375"><path fill="#fff" transform="translate(.795 .744)" d="M0 0h24v24H0z"/></clipPath></defs></svg>