<svg width="25" height="25" fill="none" xmlns="http://www.w3.org/2000/svg"><g clip-path="url('#clip0_61_387')"><path d="M11.795 2.308a8.002 8.002 0 0 1 7.934 6.965l2.25 3.539c.148.233.118.58-.225.728l-1.96.838v2.93a2 2 0 0 1-2 2h-1.998l-.001 3h-9v-3.694c0-1.18-.436-2.297-1.244-3.305a8 8 0 0 1 6.244-13.001Zm0 2a6 6 0 0 0-4.684 9.75c1.094 1.364 1.684 2.917 1.684 4.556v1.694h5l.002-3h3.998V13.06l1.55-.664-1.543-2.425-.057-.442a6.001 6.001 0 0 0-5.95-5.221Zm-.53 3.763.53.53.53-.53a1.75 1.75 0 1 1 2.475 2.474l-3.005 3.006-3.005-3.006a1.75 1.75 0 1 1 2.475-2.474Z" fill="#000"/></g><defs><clipPath id="clip0_61_387"><path fill="#fff" transform="translate(.795 .308)" d="M0 0h24v24H0z"/></clipPath></defs></svg>