<svg width="391" height="193" fill="none" xmlns="http://www.w3.org/2000/svg"><path d="m156.31 73.468 2.031-.782 2.344-3.437v-2.344l2.344-1.406 3.125-2.187 3.281 1.406 4.843-2.969 3.282-.469 3.75.469 3.281-1.406 1.406 2.968-1.406 1.407 3.593 2.187h2.032l2.343 2.344 3.125 1.094 1.563-1.094v-2.344h3.437l4.063 2.344h7.812l2.031 4.219.938 2.343 1.718 3.281 1.25 3.126v2.5l2.188 1.874 1.25 3.75 2.5 1.719 2.187 2.656.938 2.5 1.719 1.094 2.812.625 5.312-1.719v3.906l-2.343 3.907-2.188 3.437-2.968 2.812-3.282 3.75-2.812 3.125-1.875 3.438.937 4.218 1.563 2.032V134.404l-1.563 2.656-2.968.782-1.407 2.031-2.031 2.343.781 3.907-.781 1.718-2.187 1.563-1.094 1.406v1.563l-.469 1.875-3.75 4.531-3.437 2.343-2.969 1.407-1.562-1.407-2.031 1.407h-2.657l-1.093-1.407v-2.343l-1.25-2.813-2.5-2.968v-2.188l-.938-4.687-1.406-3.907-2.031-3.124v-2.813l1.093-2.656.938-3.125V125.81l-.938-2.343-1.093-3.438-1.094-1.25-1.406-2.187v-8.125l-2.188-1.719h-2.968l-1.25-1.718-2.032-1.094-2.656 1.094-3.281.937h-4.062l-4.063.781-2.656-.781-3.906-3.125-1.094-1.719-1.406-2.187-1.25-1.719-.781-1.093v-2.032l-1.094-1.562 1.094-1.875v-8.906l2.031-2.656 1.406-3.282 1.875-2.343ZM234.434 132.373l-2.969 3.281-2.969 1.719v4.062l-1.406 2.969v3.125l1.406 1.719h2.969l1.719-1.719v-3.125l2.031-5 .937-3.75v-3.281l-.937-1.563-.781 1.563ZM344.901 174.247l1.093-2.656h2.5l1.25.937-1.25 1.719-2.5.938-1.093-.938ZM329.745 159.247l-3.907 1.719h-5.156l-2.187 1.25-2.344 1.25-1.094-1.25v-1.25l1.094-3.437V147.998l1.563-2.813 5.624-3.281h2.5l3.907-3.906 1.093-1.406 2.032-2.188 3.281-1.094 2.187 1.094 1.094-1.562 2.031-1.407 3.75-1.093c3.375-.5 3.073.937 2.5 1.718l-1.719 2.344 1.719 1.25 4.063 2.344 2.812-3.594v-2.344l1.719-2.5.781 2.5 2.031 2.344v4.219l1.406 1.875 2.344 4.687 2.344 2.813v2.812l-1.25 5.156-2.344 3.281-2.5 1.719-2.031 3.906-2.5 2.032h-2.344l-1.093 1.093-1.563.938-1.875-.938h-2.5l-1.875-1.093v-2.032l-.781-1.406-1.563-2.5-1.562 1.25-1.875-2.969-2.031-.781h-1.719l-4.062.781ZM370.681 179.403h-3.437c0-1.125 1.25-2.552 1.875-3.125l3.906-2.031 3.438-1.094 2.968-2.031v2.031l-1.875 1.094-1.093 2.031H374.9l-1.875 1.875-2.344 1.25ZM383.806 172.216h-2.031l.781-2.187v-1.719l2.188-.938.937-3.281.938 2.344 1.406 1.875-2.344 1.719-1.875 2.187ZM102.717 190.341l-4.219-2.344H95.53l-4.063-1.719-2.031-3.281-2.656-3.75 1.094-1.406v-2.031l-1.094-2.032-2.188-2.812v-2.812l-.78-7.5-1.095-6.719V141.904l-3.125-3.594-3.906-2.5-2.5-3.437-2.5-4.063-2.187-5.156-1.719-.781v-3.594l1.719-1.406-1.719-2.031 1.719-3.281 2.187-3.438 1.094-1.562v-2.188l-1.094-3.75v-1.093l1.094 1.093 1.406-1.093 1.563-1.875h1.719l1.562-2.031h1.562l.782 2.812-.782 2.187-1.562-2.187 3.437-2.031h2.344l1.406 1.25 2.5.78 2.969-.78 1.875.78 3.594 4.376 1.562 1.562h2.5l3.594 1.094 1.562 2.656 1.094 2.344v1.875l1.875 1.094 1.719 1.406h2.187l1.094.781 2.187 1.25h3.282l2.656 1.406 2.968 1.719 1.719.781v4.532l-2.5 4.062-2.187 2.5v8.281l-2.656 4.531-2.188.781-3.281 1.719-2.344 2.188v2.187l-.937 4.219-2.657 4.375-2.031 1.875h-3.593l.937 1.718v2.5l-2.031 1.407h-2.188v2.812H95.53v1.719l1.25 1.093-1.25 2.813V179.247l1.25 1.875v1.875l-1.25 1.875 1.25 1.406-1.25 4.063h2.187l1.875.781 3.125-.781ZM364.119 125.186l3.438 3.281-1.094 1.093-2.344-1.093-2.656-2.344-1.563-.937h-1.718l-1.094 1.718-3.125-.781-1.719-.937h-1.562l1.562-2.344-1.562-1.406-4.375-1.719-2.344-.781v-1.563l-1.562-2.656h3.906v1.25l1.719 2.969 1.562-1.563 2.656-1.406 2.813 1.406 4.843 1.563 3.282 2.5.937 3.75ZM319.901 107.53l-3.125 2.343-3.125 1.563.625 3.593 1.563 2.5 4.062 1.563h3.125v-1.563l2.344-3.281.937-1.25v-2.187l-.937-1.875.937-2.656-.937-1.563h-2.344l-3.125 2.813ZM317.557 122.842l3.438 2.031-1.719.938-3.437-.938h-5.782l-.781-2.031h8.281ZM309.432 117.998v2.344c0 1.875-2.187 1.614-3.281 1.25l-2.187-2.344-2.031-4.375-3.125-4.531-2.657-2.5v-2.187l5.157 2.187 1.562 2.5 3.281 2.344v1.562l3.281 3.75ZM326.307 91.436l.781-3.125c.313-1.25 1.276-.52 1.719 0v3.125l1.719 1.406 1.875 2.969 2.656 3.125 1.094 2.969v3.437h-2.188l-1.562-1.719-1.875-3.906-1.719-3.906-2.5-4.375Z" stroke="#E0DDDD" stroke-width="3" stroke-dasharray="2 2"/><path d="m303.339 109.092-1.406-4.219-2.657-4.062v-4.844l1.875 1.875v2.031l.782 1.719 1.406 1.719 2.656 1.562 1.094 2.657v3.749h-1.094l-2.656-2.187Z" stroke="#E0DDDD"/><path d="m289.902 84.405-1.407-2.656-4.843.781-1.094 3.125-2.5 1.719-4.687 4.375-.782 2.5v4.843c-.375 3-2.448 2.5-3.437 1.875l-2.813-5.625-3.437-7.968v-3.907h-4.219v-2.5h-2.343l-2.657-3.75-1.718 1.407-4.375-1.406h-3.906l-2.344-1.875-5.469-.625-2.5-2.97-1.719-1.405-1.093 1.406 1.875 2.187.937 3.281h2.5l1.719 2.188 2.812-2.188 1.563 1.407 3.281 2.344v2.5l-2.5 3.906-3.281 1.562-3.594 2.031-3.437 1.875-2.657 2.5h-3.281l-1.562-2.5V90.03l-1.719-2.656-2.969-2.97V81.75l-4.687-5.469-1.406-3.75-1.719 1.406-1.875-5.156h2.813l.781-3.75v-3.437l-2.656.937-3.438-.937h-3.75l-2.031-4.063v-1.406h-1.875l-1.875 1.406.937 2.188-.937 1.875-2.187-1.094.781-1.562-2.656-1.407-1.094-4.062-2.813-1.719-4.062-2.812c-1.75-1.625-1.25.156-.781 1.25l2.031 2.343c1.614 1.198 4.594 3.594 3.594 3.594-1 0-.938 2.396-.782 3.594l-2.812-3.594-4.375-3.594-2.187-1.562-3.907 1.562h-2.187l-1.406 2.5-3.282 2.5v2.97l-3.906 1.093h-3.593l-2.813-1.875 1.094-7.188h6.406l1.406-1.562v-3.281l-2.5-2.813 3.906-.78 3.282-1.876 4.375-3.437h1.718l1.407-1.407v-2.968l1.718-1.407v2.032l2.031-.625v-2.188l-1.562-1.094-2.187 1.094-2.344-1.094v-4.062l6.875-5.156 4.843-3.594 3.907-2.187h6.718l4.063 2.187 6.25.781c2 1.625.833 2.552 0 2.813h-2.5l-3.75-1.25 3.75 3.125h2.5l1.875-1.875 2.187-1.25.937-1.563 2.657 1.563 4.062-1.563h5.313l5.468-.78h3.438l-1.875-2.188.781-1.563h3.281l2.188 1.563 3.281-1.563 2.5-1.562h3.437V11.28l5.156-1.25h3.282l1.718-1.25h2.969l2.969 1.25h4.375l1.093 1.25L273.496 13l5.781.781h11.718l5.625 2.344H302.558l.781-2.344 5.156.781 6.094 1.563h8.906l4.062 2.187h7.656l1.407-.937h3.749l5.782.937 5.156 1.563 3.281 1.25h3.594l2.187 2.343h-4.531l-2.344-1.562-2.187 1.562 3.281 1.563v1.719l-3.281 2.343h-3.281c-3.25.875-2.605 2.344-1.875 2.969l2.656 1.094.781 4.062v4.219h-1.562l-4.063-4.219-2.656-4.062 1.25-5.156-1.25-1.25-1.875 1.25h-4.219v2.656h-9.375l-2.343 1.406-1.563 3.75 2.5 1.406h2.5l3.438 1.406h1.875l2.968 2.813 2.188 2.187v1.72l.937 3.124-1.718-.938-1.407-2.187-2.187-3.125h-.781l.781 3.125v3.125l-1.563 3.75h-2.5l-1.406 1.25-.625 1.875v1.406l.625 1.563 2.813 2.03 1.093 2.188-1.093 1.719h-2.813l-.625-2.812-3.437-2.344-1.563-2.344c-2 1.125-2.708.469-2.812 0l-1.875-1.406-2.656 2.969 2.656 2.03h1.875l2.812 1.095-3.593 2.343 3.593 3.281 1.563 2.344.937 3.281-.937 4.219-1.563 3.125-3.593 1.719-3.75.781-2.032 1.875-2.031-1.875-2.031 1.406-.937 2.5 2.968 3.594 2.031 3.437v3.907l-2.031 1.718-1.406 1.875h-1.562v-1.875l-2.657-1.718-3.125-2.032h-1.093v2.032l-1.563-2.032-1.25-3.593-1.25-1.72-1.562.938h-1.563v-2.03l-1.093-2.5-2.5-2.032Z" stroke="#E0DDDD" stroke-width="3" stroke-dasharray="2 2"/><path d="m334.12 68.155-.782-2.187.469-1.407 1.406-1.406h1.875l2.188-1.406 2.187-2.5-.937-2.031-1.719-3.281v-4.375l2.031 1.406 2.813.938-.782 1.562h-2.031v2.344h1.406l1.407 2.187v1.719l.625 2.031v2.5h-2.813l-1.719 1.719-1.875-.313h-1.406l-1.25-.625-.781.625 1.25 1.406-.469 1.875-1.093-.78ZM235.996 62.374l-3.75-2.5v-3.75l-3.906-3.906V50.03l3.906-3.593 2.969 2.344-1.25 1.25h-1.719v2.187l2.969 1.406h2.031l1.094 1.719-2.344.781 1.25 2.188 1.094 2.343-2.344 1.719ZM211.778 54.562l-3.594 1.25-2.187-3.125.937-2.813 3.125-2.5 1.719 2.5h2.5v-2.5h2.968v2.5l2.657 1.719 2.5 2.969-2.5 1.25-3.907-1.25h-4.218ZM171.935 35.343l2.656 3.906 1.094.938-1.094 1.406-3.75 1.094h-2.969l.938-2.5v-.938l2.031-2.187-2.031-1.719v-2.969h2.031l1.094 2.97ZM163.341 37.53l2.5-1.093c2-.875 1.563.365 1.094 1.094l-1.094 2.343-2.5 1.25v-3.593ZM152.404 23.468l3.437-1.093h3.906l1.719 1.093-3.437 2.032h-3.75l-1.875-2.032ZM123.811 22.218l1.562-2.5c2.125-.875 2.135-2.656 1.875-3.437l-1.875-3.437-3.437-2.813h-2.657l-2.656-1.094V7.22h5.313l3.437-1.719 4.844-.938 7.656.938 4.687-1.719H158.029l3.75 1.719-2.344 3.437-1.406 2.657-2.969 1.25-2.344 1.406 2.344 2.031-2.344 1.25-4.375 1.406-3.125.781-2.656 1.094-4.687 1.406-4.375 2.344-3.281 4.531h-2.969l-3.437-2.5v-4.375Z" stroke="#E0DDDD" stroke-width="3" stroke-dasharray="2 2"/><path d="m106.936 6.281-2.969 2.656 3.75 1.407 2.969-1.407 3.75-1.25 6.875-1.406L125.842 3l-8.125.937h-5.469v2.344h-5.312Z" stroke="#E0DDDD" stroke-width="3" stroke-dasharray="2 2"/><path d="M99.592 13.156h-3.125l-3.125 1.719 3.125 1.875H103.186l2.812 3.437v1.094h-2.812l-1.875 2.187 1.875 2.344 3.75 1.094 2.344-2.188v-2.343h1.25c3.499.875 3.437-.365 2.968-1.094l-1.875-2.5-2.343-2.812-2.344-1.094h-1.875l-1.875-.938-3.594-.78Z" stroke="#E0DDDD" stroke-width="3" stroke-dasharray="3 3"/><path d="m66.311 12.062-2.343 1.094-2.813 1.094.938 1.719 1.875-1.72h3.125l1.25 1.72-2.032 2.5H73.5l2.812-.626 3.281-.468v-3.126H77.094l-1.407-1.093-1.562 1.094-2.031-1.094-2.97-1.094h-2.812Z" stroke="#E0DDDD" stroke-width="3" stroke-dasharray="2 2"/><path d="m110.529 43.468 2.969 1.875-2.969.938h-2.968l-1.406-.938 1.406-1.094 2.968-2.656v1.875Z" stroke="#E0DDDD" stroke-width="3" stroke-dasharray="3 3"/><path d="m80.374 59.405 5.468-4.218 3.438-1.094 2.187-2.656 3.75-2.031h1.406v2.03h2.344l3.594-2.03-3.594-1.563 1.25-3.281h-2.656l1.406-2.5H106.78l3.437-1.719 2.344-2.187-2.344-.782-1.719-2.5-.937-5.312-4.219 2.344-1.562-2.344v-1.719l-5.157-1.562-2.656 1.562-1.562 3.282v2.187l-3.125 2.813-2.656 1.25v2.03l-2.344 1.876-1.563-1.875.938-3.75-3.281-.782-2.031-1.562-3.126-2.187 2.032-3.282 4.218-1.562 2.813-1.563 3.594-1.093 2.187-1.25 3.906 1.25-.937 2.03-3.75-.937 2.187-3.593h3.75l2.344-1.719v-1.719h-2.344l-3.75 1.719-1.406-1.719-.781-2.5-2.656 1.094v1.406l-2.344 1.719v-1.719h-1.563v1.719h-2.343l-3.125.781-2.031-.781-3.75.781v.938l-4.22-.938-4.374-2.5H53.812l-6.406 1.719-4.375-1.719-10.782-1.406h-4.53l-6.094 1.406-2.032.938c-.99 0-2.78.5-2.03 2.5l-2.5 1.25h-3.126c-.312.468-.53 1.593 1.094 2.343l-2.344 1.563H7.875l-1.406 2.5-2.032.781 2.032 1.563L1 35.654l9.687-3.75L16 29.563h1.562l5-1.719 4.375 1.72 3.281 2.343 1.563 2.031c-.521 1.875-1.563 6.125-1.563 8.125 2.813 0 4.688 2.969 3.125 3.594-1.25.5-4.27 4.062-5.625 5.78l-3.593 4.844 1.093 8.125 2.5 3.438v2.968l1.094 4.375 1.406 3.281 1.563 1.876v-5.157l-1.563-2.968v-2.344h1.563v3.594l2.5 3.906 2.968 4.687v3.594l6.875 4.375h6.25l2.344 2.812 4.062 1.563h1.563l1.406 2.656 2.813 3.594 3.906 2.031 2.968-2.031h-2.968l-3.125-3.594v-5.937h-3.594l-1.406-1.094 1.406-5.156c.573-.834.938-2.25-2.187-1.25l-2.188 2.968-3.594 1.25-2.5-2.187-1.718-3.594 1.719-5.78 1.093-2.813 5-2.657 4.375 1.407 3.594-2.344 2.343.937 2.813 1.407v4.062l.937 1.094 2.032-1.094v-2.812l-1.25-3.594 2.968-2.031 2.5-2.032 3.906-1.406v-3.437l.782-1.563Z" stroke="#E0DDDD" stroke-width="3" stroke-dasharray="2 2"/><path d="M81.467 87.686h-4.374l1.25-2.5h1.562l4.375.938-2.813 1.562ZM70.686 80.655H65.53l1.406 1.094 2.657 1.406 2.343 1.719 4.844-.782-1.563-.937-4.53-2.5ZM68.499 47.843h4.375l-2.813 2.344-1.562 3.437.781 1.406 1.875-1.406 1.719-4.218h2.812v2.5l3.281-1.72v-2.343H77.25l-1.563-.938-1.562-1.718H70.06L68.5 47.843ZM95.842 10.969l7.656 1.406 1.719-1.406h-4.531l-2.813-1.407-2.03 1.407ZM104.28 4.875l-1.094 2.187h-2.188l-2.187-.78 2.187-1.407h3.282ZM190.528 35.5l1.406-2.657.938-1.875.781-1.406-1.719-1.875v-1.719l3.282-1.093 2.031-3.125 2.187 1.718-2.968 2.5.781 2.813h5.312l2.031.781-2.031 1.406h-3.125v1.875h-2.187V35.5l-2.031 1.407h-1.563l-3.125 1.093-1.562-1.093h-3.281l2.031-1.407h2.812ZM326.307 117.842l1.406-3.594c-.75-1.125.313-2.239.938-2.656 0-.75 4.062-.313 6.094 0 0 2.5-2.917 1.667-4.375.937l-1.094 1.094.469 1.563h2.343l-1.718 1.406.937 2.187-.937 1.094-1.094-2.031-.625.937v2.813l-2.344-.469v-3.281Z" stroke="#E0DDDD" stroke-width="3" stroke-dasharray="2 2"/></svg>