<svg width="20" height="14" fill="none" xmlns="http://www.w3.org/2000/svg"><path fill-rule="evenodd" clip-rule="evenodd" d="M12 4h1a1 1 0 0 1 1 1v6a1 1 0 0 1-1 1h-1a1 1 0 0 1-1-1V5a1 1 0 0 1 1-1ZM7.5 6h1a1 1 0 0 1 1 1v4a1 1 0 0 1-1 1h-1a1 1 0 0 1-1-1V7a1 1 0 0 1 1-1ZM3 7.5h1a1 1 0 0 1 1 1V11a1 1 0 0 1-1 1H3a1 1 0 0 1-1-1V8.5a1 1 0 0 1 1-1Z" fill="#D9D9D9"/><path fill-rule="evenodd" clip-rule="evenodd" d="M16.5 2h1a1 1 0 0 1 1 1v8a1 1 0 0 1-1 1h-1a1 1 0 0 1-1-1V3a1 1 0 0 1 1-1Z" fill="#3C3C43" fill-opacity=".18"/><path fill-rule="evenodd" clip-rule="evenodd" d="M12 4h1a1 1 0 0 1 1 1v6a1 1 0 0 1-1 1h-1a1 1 0 0 1-1-1V5a1 1 0 0 1 1-1ZM7.5 6h1a1 1 0 0 1 1 1v4a1 1 0 0 1-1 1h-1a1 1 0 0 1-1-1V7a1 1 0 0 1 1-1ZM3 7.5h1a1 1 0 0 1 1 1V11a1 1 0 0 1-1 1H3a1 1 0 0 1-1-1V8.5a1 1 0 0 1 1-1Z" fill="#000"/></svg>