<svg width="78" height="24" fill="none" xmlns="http://www.w3.org/2000/svg"><path opacity=".35" d="M54 11.527h17A3.473 3.473 0 0 1 74.472 15v5A3.473 3.473 0 0 1 71 23.473H54A3.473 3.473 0 0 1 50.528 20v-5A3.473 3.473 0 0 1 54 11.527Z" stroke="#000" stroke-width="1.055"/><path opacity=".4" d="M76 16v4.22A2.29 2.29 0 0 0 76 16" fill="#000"/><path d="M52 15a2 2 0 0 1 2-2h17a2 2 0 0 1 2 2v5a2 2 0 0 1-2 2H54a2 2 0 0 1-2-2v-5Z" fill="#000"/><path fill-rule="evenodd" clip-rule="evenodd" d="M34.5 14.588c2.467 0 4.84.967 6.627 2.702.134.134.35.132.482-.004l1.287-1.326a.37.37 0 0 0-.003-.518 11.953 11.953 0 0 0-16.786 0 .37.37 0 0 0-.003.518l1.287 1.326a.337.337 0 0 0 .482.004 9.515 9.515 0 0 1 6.628-2.702Zm.036 4.084a5.4 5.4 0 0 1 3.666 1.443.34.34 0 0 0 .483-.006l1.285-1.326a.37.37 0 0 0-.005-.522 7.851 7.851 0 0 0-10.856 0 .37.37 0 0 0-.004.522l1.285 1.325a.34.34 0 0 0 .482.007 5.4 5.4 0 0 1 3.664-1.443Zm2.614 2.67a.36.36 0 0 1-.105.263l-2.223 2.29a.344.344 0 0 1-.494 0l-2.224-2.29a.36.36 0 0 1 .011-.52 3.75 3.75 0 0 1 4.92 0 .36.36 0 0 1 .115.258Z" fill="#000"/><path d="M10 15a1 1 0 0 1 1-1h1a1 1 0 0 1 1 1v8a1 1 0 0 1-1 1h-1a1 1 0 0 1-1-1v-8ZM15 13a1 1 0 0 1 1-1h1a1 1 0 0 1 1 1v10a1 1 0 0 1-1 1h-1a1 1 0 0 1-1-1V13ZM5 18.5a1 1 0 0 1 1-1h1a1 1 0 0 1 1 1V23a1 1 0 0 1-1 1H6a1 1 0 0 1-1-1v-4.5ZM0 21a1 1 0 0 1 1-1h1a1 1 0 0 1 1 1v2a1 1 0 0 1-1 1H1a1 1 0 0 1-1-1v-2Z" fill="#000"/><circle cx="8.999" cy="3" r="3" fill="#34C759"/></svg>