<svg width="25" height="25" fill="none" xmlns="http://www.w3.org/2000/svg"><path clip-rule="evenodd" d="m21.674 7.941-.649-1.125a1.993 1.993 0 0 0-2.717-.734v0a1.983 1.983 0 0 1-2.718-.706 1.908 1.908 0 0 1-.267-.953v0a1.993 1.993 0 0 0-1.992-2.05h-1.306a1.983 1.983 0 0 0-1.984 1.993v0A1.993 1.993 0 0 1 8.05 6.33a1.907 1.907 0 0 1-.954-.267v0a1.993 1.993 0 0 0-2.717.734l-.696 1.144a1.993 1.993 0 0 0 .724 2.718v0a1.993 1.993 0 0 1 0 3.451v0a1.983 1.983 0 0 0-.724 2.708v0l.658 1.135a1.992 1.992 0 0 0 2.717.772v0a1.974 1.974 0 0 1 2.708.725c.171.288.263.617.267.953v0c0 1.1.892 1.993 1.992 1.993h1.307a1.993 1.993 0 0 0 1.992-1.983v0a1.983 1.983 0 0 1 1.993-1.993c.335.009.663.1.954.267v0c.95.548 2.165.224 2.717-.725v0l.687-1.144a1.983 1.983 0 0 0-.725-2.717v0a1.983 1.983 0 0 1-.725-2.718c.173-.301.423-.552.725-.724v0a1.993 1.993 0 0 0 .725-2.708v0-.01Z" stroke="#FFE0D6" stroke-width="2" stroke-linecap="round" stroke-linejoin="round"/><circle cx="12.682" cy="12.384" r="2.746" stroke="#FFE0D6" stroke-width="2" stroke-linecap="round" stroke-linejoin="round"/></svg>