<svg width="25" height="23" fill="none" xmlns="http://www.w3.org/2000/svg"><path d="M.629 15.506c.724.709 2.113.874 3.188-.119.385-.342 1.144-1.157 2.335-2.374 5.84-5.979 9.436-9.748 10.078-9.157.514.473-1.471 3.32-3.456 6.108-3.632 5.093-6.692 8.815-4.391 11.142 1.798 1.82 4.53.165 8.91-3.722 2.347-2.091 3.982-3.639 4.39-3.237.258.26-.361 1.288-1.155 2.67-1.121 1.962-2.616 4.183-1.156 5.66 1.016 1.027 2.954.579 5.208-1.678.467-.46.572-1.016.175-1.406-.362-.366-.876-.307-1.261.047-1.46 1.418-2.546 2.032-2.721 1.831-.222-.212.397-1.335 1.471-3.272 1.483-2.682 2.394-4.478 1.028-5.825-1.833-1.796-3.982.106-7.707 3.426-3.165 2.812-4.461 3.545-4.753 3.226-.42-.45.747-2.044 4.204-6.936 3.737-5.27 5.955-8.696 3.853-10.775-2.744-2.706-6.434-.71-15.578 8.448-1.331 1.323-2.16 2.126-2.569 2.623-1.063 1.24-.829 2.61-.093 3.32Z" fill="#F2F2F2"/></svg>