<svg width="54" height="21" fill="none" xmlns="http://www.w3.org/2000/svg"><path d="M16.867 16.089c2.688 0 4.285-2.102 4.285-5.662 0-1.34-.257-2.468-.747-3.34C19.695 5.732 18.47 5 16.925 5 14.627 5 13 6.545 13 8.713c0 2.037 1.465 3.516 3.479 3.516 1.238 0 2.241-.579 2.74-1.582h.124c0 2.417-.916 3.86-2.461 3.86-.908 0-1.612-.498-1.853-1.297h-1.883c.315 1.736 1.788 2.879 3.721 2.879Zm.066-5.361c-1.216 0-2.08-.865-2.08-2.073 0-1.18.908-2.08 2.087-2.08 1.18 0 2.088.915 2.088 2.11 0 1.178-.886 2.042-2.095 2.042ZM24.243 15.986c.696 0 1.172-.498 1.172-1.157 0-.666-.476-1.157-1.172-1.157-.688 0-1.172.49-1.172 1.157 0 .66.483 1.157 1.172 1.157Zm0-5.493c.696 0 1.172-.49 1.172-1.15 0-.666-.476-1.157-1.172-1.157-.688 0-1.172.49-1.172 1.157 0 .66.483 1.15 1.172 1.15ZM32.27 15.832h1.81v-1.97h1.428v-1.596H34.08V5.264h-2.666c-1.868 2.812-3.355 5.163-4.307 6.914v1.684h5.164v1.97ZM28.858 12.2a79.576 79.576 0 0 1 3.34-5.398h.103v5.508h-3.442v-.11ZM39.536 15.832h1.89V5.264h-1.882l-2.761 1.933v1.817l2.629-1.846h.124v8.665Z" fill="#000"/></svg>